<mxfile host="app.diagrams.net" agent="Mozilla/5.0 (Macintosh; Intel Mac OS X 10_15_7) AppleWebKit/605.1.15 (KHTML, like Gecko) Version/18.6 Safari/605.1.15" version="28.2.3">
  <diagram id="Ht1M8jgEwFfnCIfOTk4-" name="Page-1">
    <mxGraphModel dx="6358" dy="2252" grid="1" gridSize="10" guides="1" tooltips="1" connect="1" arrows="1" fold="1" page="1" pageScale="1" pageWidth="1169" pageHeight="827" math="0" shadow="0">
      <root>
        <mxCell id="0" />
        <mxCell id="1" parent="0" />
        <mxCell id="gGwlAg2NpKpwANiee2Lp-52" value="" style="rounded=0;whiteSpace=wrap;html=1;strokeColor=light-dark(#000000,#000000);" parent="1" vertex="1">
          <mxGeometry x="-1630" y="80" width="1080" height="1920" as="geometry" />
        </mxCell>
        <mxCell id="ZI70vxyPbpq8DwKy1oIE-7" style="edgeStyle=orthogonalEdgeStyle;rounded=0;orthogonalLoop=1;jettySize=auto;html=1;" edge="1" parent="1" source="ZI70vxyPbpq8DwKy1oIE-3" target="gGwlAg2NpKpwANiee2Lp-13">
          <mxGeometry relative="1" as="geometry" />
        </mxCell>
        <mxCell id="ZI70vxyPbpq8DwKy1oIE-8" style="edgeStyle=orthogonalEdgeStyle;rounded=0;orthogonalLoop=1;jettySize=auto;html=1;" edge="1" parent="1" source="ZI70vxyPbpq8DwKy1oIE-3" target="gGwlAg2NpKpwANiee2Lp-14">
          <mxGeometry relative="1" as="geometry" />
        </mxCell>
        <mxCell id="ZI70vxyPbpq8DwKy1oIE-3" value="" style="shape=actor;whiteSpace=wrap;html=1;fontStyle=1" vertex="1" parent="1">
          <mxGeometry x="-1111" y="540" width="90" height="110" as="geometry" />
        </mxCell>
        <mxCell id="ZI70vxyPbpq8DwKy1oIE-10" style="edgeStyle=orthogonalEdgeStyle;rounded=0;orthogonalLoop=1;jettySize=auto;html=1;" edge="1" parent="1" source="od6eeCdcjbZJOe7FV_tS-1" target="ZI70vxyPbpq8DwKy1oIE-2">
          <mxGeometry relative="1" as="geometry" />
        </mxCell>
        <mxCell id="od6eeCdcjbZJOe7FV_tS-1" value="" style="sketch=0;points=[[0,0,0],[0.25,0,0],[0.5,0,0],[0.75,0,0],[1,0,0],[0,1,0],[0.25,1,0],[0.5,1,0],[0.75,1,0],[1,1,0],[0,0.25,0],[0,0.5,0],[0,0.75,0],[1,0.25,0],[1,0.5,0],[1,0.75,0]];outlineConnect=0;fontColor=#232F3E;fillColor=#8C4FFF;strokeColor=#ffffff;dashed=0;verticalLabelPosition=bottom;verticalAlign=top;align=center;html=1;fontSize=12;fontStyle=0;aspect=fixed;shape=mxgraph.aws4.resourceIcon;resIcon=mxgraph.aws4.cloudfront;" parent="1" vertex="1">
          <mxGeometry x="-1301" y="757" width="100" height="100" as="geometry" />
        </mxCell>
        <mxCell id="gGwlAg2NpKpwANiee2Lp-14" value="" style="sketch=0;points=[[0,0,0],[0.25,0,0],[0.5,0,0],[0.75,0,0],[1,0,0],[0,1,0],[0.25,1,0],[0.5,1,0],[0.75,1,0],[1,1,0],[0,0.25,0],[0,0.5,0],[0,0.75,0],[1,0.25,0],[1,0.5,0],[1,0.75,0]];outlineConnect=0;fontColor=#232F3E;fillColor=#8C4FFF;strokeColor=#ffffff;dashed=0;verticalLabelPosition=bottom;verticalAlign=top;align=center;html=1;fontSize=12;fontStyle=0;aspect=fixed;shape=mxgraph.aws4.resourceIcon;resIcon=mxgraph.aws4.route_53;" parent="1" vertex="1">
          <mxGeometry x="-921" y="757" width="100" height="100" as="geometry" />
        </mxCell>
        <mxCell id="ZI70vxyPbpq8DwKy1oIE-2" value="" style="sketch=0;points=[[0,0,0],[0.25,0,0],[0.5,0,0],[0.75,0,0],[1,0,0],[0,1,0],[0.25,1,0],[0.5,1,0],[0.75,1,0],[1,1,0],[0,0.25,0],[0,0.5,0],[0,0.75,0],[1,0.25,0],[1,0.5,0],[1,0.75,0]];outlineConnect=0;fontColor=#232F3E;fillColor=#7AA116;strokeColor=#ffffff;dashed=0;verticalLabelPosition=bottom;verticalAlign=top;align=center;html=1;fontSize=12;fontStyle=0;aspect=fixed;shape=mxgraph.aws4.resourceIcon;resIcon=mxgraph.aws4.s3;" vertex="1" parent="1">
          <mxGeometry x="-1301" y="899" width="100" height="100" as="geometry" />
        </mxCell>
        <mxCell id="ZI70vxyPbpq8DwKy1oIE-11" style="edgeStyle=orthogonalEdgeStyle;rounded=0;orthogonalLoop=1;jettySize=auto;html=1;" edge="1" parent="1" source="gGwlAg2NpKpwANiee2Lp-13" target="gGwlAg2NpKpwANiee2Lp-24">
          <mxGeometry relative="1" as="geometry">
            <Array as="points">
              <mxPoint x="-1166" y="1070" />
            </Array>
          </mxGeometry>
        </mxCell>
        <mxCell id="ZI70vxyPbpq8DwKy1oIE-12" style="edgeStyle=orthogonalEdgeStyle;rounded=0;orthogonalLoop=1;jettySize=auto;html=1;" edge="1" parent="1" source="gGwlAg2NpKpwANiee2Lp-13" target="ZI70vxyPbpq8DwKy1oIE-5">
          <mxGeometry relative="1" as="geometry">
            <Array as="points">
              <mxPoint x="-960" y="1070" />
            </Array>
          </mxGeometry>
        </mxCell>
        <mxCell id="gGwlAg2NpKpwANiee2Lp-13" value="" style="sketch=0;outlineConnect=0;fontColor=#232F3E;gradientColor=none;fillColor=#8C4FFF;strokeColor=none;dashed=0;verticalLabelPosition=bottom;verticalAlign=top;align=center;html=1;fontSize=12;fontStyle=0;aspect=fixed;pointerEvents=1;shape=mxgraph.aws4.application_load_balancer;" parent="1" vertex="1">
          <mxGeometry x="-1116" y="1021" width="100" height="100" as="geometry" />
        </mxCell>
        <mxCell id="ZI70vxyPbpq8DwKy1oIE-4" value="ASG" style="points=[[0,0],[0.25,0],[0.5,0],[0.75,0],[1,0],[1,0.25],[1,0.5],[1,0.75],[1,1],[0.75,1],[0.5,1],[0.25,1],[0,1],[0,0.75],[0,0.5],[0,0.25]];outlineConnect=0;gradientColor=none;html=1;whiteSpace=wrap;fontSize=30;fontStyle=0;container=0;pointerEvents=0;collapsible=0;recursiveResize=0;shape=mxgraph.aws4.groupCenter;grIcon=mxgraph.aws4.group_auto_scaling_group;grStroke=1;strokeColor=#D86613;fillColor=none;verticalAlign=top;align=center;fontColor=#D86613;dashed=1;spacingTop=25;" vertex="1" parent="1">
          <mxGeometry x="-1346" y="1177" width="560" height="380" as="geometry" />
        </mxCell>
        <mxCell id="ZI70vxyPbpq8DwKy1oIE-5" value="" style="sketch=0;outlineConnect=0;fontColor=#232F3E;gradientColor=none;fillColor=#ED7100;strokeColor=none;dashed=0;verticalLabelPosition=bottom;verticalAlign=top;align=center;html=1;fontSize=24;fontStyle=0;aspect=fixed;pointerEvents=1;shape=mxgraph.aws4.instance2;" vertex="1" parent="1">
          <mxGeometry x="-1010" y="1317" width="100" height="100" as="geometry" />
        </mxCell>
        <mxCell id="gGwlAg2NpKpwANiee2Lp-24" value="" style="sketch=0;outlineConnect=0;fontColor=#232F3E;gradientColor=none;fillColor=#ED7100;strokeColor=none;dashed=0;verticalLabelPosition=bottom;verticalAlign=top;align=center;html=1;fontSize=24;fontStyle=0;aspect=fixed;pointerEvents=1;shape=mxgraph.aws4.instance2;" parent="1" vertex="1">
          <mxGeometry x="-1216" y="1317" width="100" height="100" as="geometry" />
        </mxCell>
        <mxCell id="ZI70vxyPbpq8DwKy1oIE-9" style="edgeStyle=orthogonalEdgeStyle;rounded=0;orthogonalLoop=1;jettySize=auto;html=1;entryX=0.5;entryY=0;entryDx=0;entryDy=0;entryPerimeter=0;" edge="1" parent="1" source="ZI70vxyPbpq8DwKy1oIE-3" target="od6eeCdcjbZJOe7FV_tS-1">
          <mxGeometry relative="1" as="geometry" />
        </mxCell>
      </root>
    </mxGraphModel>
  </diagram>
</mxfile>
